<svg xmlns="http://www.w3.org/2000/svg" width="1200" height="630" viewBox="0 0 1200 630" role="img" aria-label="Crashla social preview graphic">
  <defs>
    <linearGradient id="bg" x1="0" y1="0" x2="1" y2="1">
      <stop offset="0%" stop-color="#f7fbff"/>
      <stop offset="100%" stop-color="#edf4ff"/>
    </linearGradient>
    <linearGradient id="panel" x1="0" y1="0" x2="0" y2="1">
      <stop offset="0%" stop-color="#ffffff" stop-opacity="0.95"/>
      <stop offset="100%" stop-color="#f8fbff" stop-opacity="0.95"/>
    </linearGradient>
    <filter id="softShadow" x="-20%" y="-20%" width="140%" height="140%">
      <feDropShadow dx="0" dy="10" stdDeviation="12" flood-color="#8aa1c4" flood-opacity="0.25"/>
    </filter>
  </defs>

  <rect width="1200" height="630" fill="url(#bg)"/>
  <circle cx="1020" cy="78" r="170" fill="#dbeafe" opacity="0.35"/>
  <circle cx="150" cy="560" r="220" fill="#d1fae5" opacity="0.28"/>

  <rect x="72" y="52" width="1056" height="526" rx="28" fill="url(#panel)" filter="url(#softShadow)"/>

  <rect x="140" y="130" width="980" height="380" rx="16" fill="#fbfdff" stroke="#d4dfef"/>

  <g stroke="#dbe5f2" stroke-width="1">
    <line x1="170" y1="460" x2="1090" y2="460"/>
    <line x1="170" y1="390" x2="1090" y2="390"/>
    <line x1="170" y1="320" x2="1090" y2="320"/>
    <line x1="170" y1="250" x2="1090" y2="250"/>
    <line x1="170" y1="180" x2="1090" y2="180"/>
  </g>

  <g>
    <rect x="206" y="370" width="14" height="90" fill="#ef4444"/>
    <rect x="224" y="300" width="14" height="160" fill="#3b82f6"/>
    <rect x="242" y="340" width="14" height="120" fill="#22c55e"/>

    <rect x="306" y="350" width="14" height="110" fill="#ef4444"/>
    <rect x="324" y="282" width="14" height="178" fill="#3b82f6"/>
    <rect x="342" y="328" width="14" height="132" fill="#22c55e"/>

    <rect x="406" y="332" width="14" height="128" fill="#ef4444"/>
    <rect x="424" y="260" width="14" height="200" fill="#3b82f6"/>
    <rect x="442" y="318" width="14" height="142" fill="#22c55e"/>

    <rect x="506" y="315" width="14" height="145" fill="#ef4444"/>
    <rect x="524" y="236" width="14" height="224" fill="#3b82f6"/>
    <rect x="542" y="302" width="14" height="158" fill="#22c55e"/>

    <rect x="606" y="298" width="14" height="162" fill="#ef4444"/>
    <rect x="624" y="214" width="14" height="246" fill="#3b82f6"/>
    <rect x="642" y="284" width="14" height="176" fill="#22c55e"/>

    <rect x="706" y="280" width="14" height="180" fill="#ef4444"/>
    <rect x="724" y="198" width="14" height="262" fill="#3b82f6"/>
    <rect x="742" y="268" width="14" height="192" fill="#22c55e"/>

    <rect x="806" y="260" width="14" height="200" fill="#ef4444"/>
    <rect x="824" y="186" width="14" height="274" fill="#3b82f6"/>
    <rect x="842" y="248" width="14" height="212" fill="#22c55e"/>

    <rect x="906" y="245" width="14" height="215" fill="#ef4444"/>
    <rect x="924" y="172" width="14" height="288" fill="#3b82f6"/>
    <rect x="942" y="230" width="14" height="230" fill="#22c55e"/>
  </g>

  <g fill="none" stroke-width="6" stroke-linecap="round" stroke-linejoin="round">
    <path d="M 198 438 C 276 418, 336 406, 408 392 C 495 372, 566 354, 646 338 C 731 322, 818 300, 940 274" stroke="#ef4444"/>
    <path d="M 198 298 C 288 286, 354 270, 432 254 C 514 236, 592 214, 672 194 C 746 177, 830 166, 940 152" stroke="#3b82f6"/>
    <path d="M 198 360 C 280 344, 354 334, 430 314 C 518 292, 610 274, 700 250 C 782 230, 854 212, 940 192" stroke="#22c55e"/>
  </g>

  <g>
    <circle cx="940" cy="274" r="7" fill="#ef4444"/>
    <circle cx="940" cy="152" r="7" fill="#3b82f6"/>
    <circle cx="940" cy="192" r="7" fill="#22c55e"/>
  </g>
</svg>
